<svg width="512" height="512" viewBox="0 0 55 55" xmlns="http://www.w3.org/2000/svg" xmlns:xlink="http://www.w3.org/1999/xlink" id="Capa_1" overflow="hidden"><path d="M49 0C45.691 0 43 2.691 43 6 43 7.035 43.263 8.009 43.726 8.86L33.897 18.689C32.542 17.634 30.846 17 29 17 27.154 17 25.458 17.634 24.102 18.688L16.433 11.019C16.785 10.424 17 9.74 17 9 17 6.794 15.206 5 13 5 10.794 5 9 6.794 9 9 9 11.206 10.794 13 13 13 13.74 13 14.424 12.785 15.019 12.433L22.688 20.102C21.634 21.458 21 23.154 21 25 21 26.846 21.634 28.542 22.688 29.897L10.024 42.562C8.958 41.595 7.549 41 6 41 2.691 41 0 43.691 0 47 0 50.309 2.691 53 6 53 9.309 53 12 50.309 12 47 12 45.965 11.737 44.991 11.274 44.14L24.103 31.311C25.209 32.171 26.543 32.747 28.001 32.93L28.001 43.09C25.168 43.568 23.001 46.032 23.001 49 23.001 52.309 25.692 55 29.001 55 32.31 55 35.001 52.309 35.001 49 35.001 46.033 32.834 43.569 30.001 43.09L30.001 32.93C31.459 32.747 32.793 32.171 33.899 31.311L41.568 38.98C41.215 39.576 41 40.26 41 41 41 43.206 42.794 45 45 45 47.206 45 49 43.206 49 41 49 38.794 47.206 37 45 37 44.26 37 43.576 37.215 42.981 37.567L35.312 29.898C36.366 28.542 37 26.846 37 25 37 23.154 36.366 21.458 35.312 20.103L44.977 10.438C46.042 11.405 47.451 12 49 12 52.309 12 55 9.309 55 6 55 2.691 52.309 0 49 0Z" stroke="none" stroke-width="1" stroke-linecap="butt" fill="#28B1C4" fill-opacity="1"/><g></g><g></g><g></g><g></g><g></g><g></g><g></g><g></g><g></g><g></g><g></g><g></g><g></g><g></g><g></g></svg>