<svg width="48.832" height="48.832" viewBox="0 0 48.832 48.832" xmlns="http://www.w3.org/2000/svg" xmlns:xlink="http://www.w3.org/1999/xlink" id="Capa_1" overflow="hidden"><g><g id="Layer_20_51_"><g><path d="M15.42 32.814 22.23 32.814 22.23 34.385 15.42 34.385 15.42 35.68 36.838 35.68 36.838 34.385 28.898 34.385 28.898 32.814 37.729 32.814 37.729 29.227 15.42 29.227Z" fill="#1C3552"/><path d="M9.489 11.231 41.957 11.231 41.957 24.209 44.739 24.209 44.739 8.449 6.707 8.449 6.707 17.14 9.489 17.14Z" fill="#1C3552"/><path d="M0 39.799 14.523 39.799 14.523 18.013 0 18.013 0 39.799ZM7.568 38.705C7.182 38.705 6.868 38.393 6.868 38.006 6.868 37.62 7.182 37.307 7.568 37.307 7.955 37.307 8.267 37.619 8.267 38.006 8.267 38.393 7.955 38.705 7.568 38.705ZM2.1 20.113 12.425 20.113 12.424 36.185 2.1 36.185 2.1 20.113Z" fill="#1C3552"/><path d="M38.715 25.046 38.715 40.383 48.832 40.383 48.832 25.046 38.715 25.046ZM43.979 25.68C44.1 25.68 44.199 25.781 44.199 25.901 44.199 26.022 44.1 26.123 43.979 26.123 43.856 26.123 43.756 26.022 43.756 25.901 43.756 25.78 43.855 25.68 43.979 25.68ZM42.665 26.416 45.288 26.416 45.288 26.628 42.665 26.628 42.665 26.416ZM43.891 39.721C43.6 39.721 43.367 39.485 43.367 39.196 43.367 38.906 43.6 38.672 43.891 38.672 44.18 38.672 44.416 38.906 44.416 39.196 44.416 39.484 44.18 39.721 43.891 39.721ZM47.369 37.915C45.001 37.928 41.353 37.937 40.18 37.927L40.18 27.382 47.369 27.381 47.369 37.915Z" fill="#1C3552"/></g></g></g><g></g><g></g><g></g><g></g><g></g><g></g><g></g><g></g><g></g><g></g><g></g><g></g><g></g><g></g><g></g></svg>