<?xml version="1.0" encoding="utf-8"?>
<!-- Generator: Adobe Illustrator 23.0.1, SVG Export Plug-In . SVG Version: 6.00 Build 0)  -->
<svg version="1.1" id="Layer_1" xmlns="http://www.w3.org/2000/svg" xmlns:xlink="http://www.w3.org/1999/xlink" x="0px" y="0px"
	 viewBox="0 0 512 512" style="enable-background:new 0 0 512 512;" xml:space="preserve">
<style type="text/css">
	.st0{fill:#FFFFFF;}
</style>
<g>
	<g>
		<g>
			<path class="st0" d="M398.2,236L170.4,8.2C165.1,2.9,158.1,0,150.6,0c-7.5,0-14.5,2.9-19.8,8.2L114,25
				c-10.9,10.9-10.9,28.7,0,39.6l191.3,191.3L113.8,447.4c-5.3,5.3-8.2,12.3-8.2,19.8c0,7.5,2.9,14.5,8.2,19.8l16.8,16.8
				c5.3,5.3,12.3,8.2,19.8,8.2s14.5-2.9,19.8-8.2l228.1-228.1c5.3-5.3,8.2-12.4,8.2-19.9C406.4,248.4,403.5,241.3,398.2,236z"/>
		</g>
	</g>
</g>
</svg>
