<?xml version="1.0" encoding="utf-8"?>
<!-- Generator: Adobe Illustrator 23.0.1, SVG Export Plug-In . SVG Version: 6.00 Build 0)  -->
<svg version="1.1" id="Layer_1" xmlns="http://www.w3.org/2000/svg" xmlns:xlink="http://www.w3.org/1999/xlink" x="0px" y="0px"
	 viewBox="0 0 512 512" style="enable-background:new 0 0 512 512;" xml:space="preserve">
<style type="text/css">
	.st0{fill:#FFFFFF;}
</style>
<g>
	<g>
		<g>
			<path class="st0" d="M113.8,276l227.8,227.8c5.3,5.3,12.3,8.2,19.8,8.2s14.5-2.9,19.8-8.2L398,487c10.9-10.9,10.9-28.7,0-39.6
				L206.7,256.1L398.2,64.6c5.3-5.3,8.2-12.3,8.2-19.8s-2.9-14.5-8.2-19.8L381.4,8.2C376.2,2.9,369.1,0,361.6,0s-14.5,2.9-19.8,8.2
				l-228,228c-5.3,5.3-8.2,12.4-8.2,19.9C105.6,263.6,108.5,270.7,113.8,276z"/>
		</g>
	</g>
</g>
</svg>
