<svg width="512" height="512" viewBox="0 0 48 48" xmlns="http://www.w3.org/2000/svg" xmlns:xlink="http://www.w3.org/1999/xlink" id="Layer_1" overflow="hidden"><path d="M26.208 10.97C25.8394 11.7894 25.5205 12.6303 25.253 13.488 26.5174 14.2306 26.9403 15.8576 26.1977 17.122 25.4551 18.3863 23.8281 18.8093 22.5637 18.0666 21.2994 17.324 20.8764 15.697 21.619 14.4327 22.0743 13.6575 22.8909 13.1654 23.789 13.125 24.1117 12.07 24.5093 11.0393 24.979 10.041L23.979 9.287 12.806 17.63 12.806 47.007 35.015 47.007 35.015 17.63ZM22.479 31.2 25.342 31.2C27.3159 31.2 28.916 32.8001 28.916 34.774 28.916 36.7479 27.3159 38.348 25.342 38.348L24.661 38.348 24.661 40.926C24.661 41.3402 24.3252 41.676 23.911 41.676 23.4968 41.676 23.161 41.3402 23.161 40.926L23.161 38.346 22.479 38.346C20.5062 38.3443 18.9072 36.7458 18.905 34.773 18.905 34.3588 19.2408 34.023 19.655 34.023 20.0692 34.023 20.405 34.3588 20.405 34.773 20.4067 35.9176 21.3344 36.8449 22.479 36.846L25.342 36.846C26.4874 36.846 27.416 35.9174 27.416 34.772 27.416 33.6266 26.4874 32.698 25.342 32.698L22.479 32.698C20.5051 32.698 18.905 31.0979 18.905 29.124 18.905 27.1501 20.5051 25.55 22.479 25.55L23.161 25.55 23.161 22.973C23.161 22.5588 23.4968 22.223 23.911 22.223 24.3252 22.223 24.661 22.5588 24.661 22.973L24.661 25.55 25.342 25.55C27.3151 25.5522 28.9142 27.1509 28.917 29.124 28.917 29.5382 28.5812 29.874 28.167 29.874 27.7528 29.874 27.417 29.5382 27.417 29.124 27.4153 27.9789 26.4871 27.0511 25.342 27.05L22.479 27.05C21.3336 27.05 20.405 27.9786 20.405 29.124 20.405 30.2694 21.3336 31.198 22.479 31.198Z" fill="#1C3552"/><path d="M28.049 7.7C29.3985 5.58215 31.0377 3.66355 32.919 2 32.1161 4.3775 30.9529 6.61761 29.47 8.642 29.27 8.934 29.089 9.204 28.91 9.461 28.6736 9.80121 28.7578 10.2686 29.098 10.505 29.4382 10.7414 29.9056 10.6572 30.142 10.317 30.325 10.055 30.514 9.777 30.714 9.479 31.8893 7.77012 32.9119 5.96115 33.77 4.073 34.64 2.057 34.699 0.937 33.961 0.442 32.761-0.368 30.361 1.789 26.821 6.842 26.1164 7.85392 25.5002 8.92453 24.979 10.042L26.208 10.971C26.7183 9.82561 27.3346 8.7305 28.049 7.7Z" fill="#1C3552"/><path d="M23.789 13.125C23.5487 13.8857 23.3602 14.6618 23.225 15.448 23.1648 15.8571 23.447 16.2378 23.856 16.299 23.893 16.3049 23.9305 16.3079 23.968 16.308 24.3386 16.3073 24.6532 16.0364 24.709 15.67 24.8423 14.9315 25.0241 14.2026 25.253 13.488 24.8476 13.2443 24.384 13.1144 23.911 13.112 23.869 13.112 23.83 13.123 23.789 13.125Z" fill="#1C3552"/></svg>